<svg width="389" height="330" viewBox="0 0 389 330" fill="none" xmlns="http://www.w3.org/2000/svg">
<path d="M25.725 0C22.05 0 18.9583 2.1 17.5 5.13333C16.0417 2.1 12.95 0 9.275 0C4.2 0 0 4.31667 0 9.275C0 17.7333 17.5 35 17.5 35C17.5 35 35 17.7333 35 9.275C35 4.31667 30.8 0 25.725 0Z" fill="#FC97B2"/>
<path d="M25.725 197C22.05 197 18.9583 199.1 17.5 202.133C16.0417 199.1 12.95 197 9.275 197C4.2 197 0 201.317 0 206.275C0 214.733 17.5 232 17.5 232C17.5 232 35 214.733 35 206.275C35 201.317 30.8 197 25.725 197Z" fill="#FC97B2"/>
<path d="M25.725 295C22.05 295 18.9583 297.1 17.5 300.133C16.0417 297.1 12.95 295 9.275 295C4.2 295 0 299.317 0 304.275C0 312.733 17.5 330 17.5 330C17.5 330 35 312.733 35 304.275C35 299.317 30.8 295 25.725 295Z" fill="#FC97B2"/>
<path d="M25.725 99C22.05 99 18.9583 101.1 17.5 104.133C16.0417 101.1 12.95 99 9.275 99C4.2 99 0 103.317 0 108.275C0 116.733 17.5 134 17.5 134C17.5 134 35 116.733 35 108.275C35 103.317 30.8 99 25.725 99Z" fill="#FC97B2"/>
<path d="M139.725 0C136.05 0 132.958 2.1 131.5 5.13333C130.042 2.1 126.95 0 123.275 0C118.2 0 114 4.31667 114 9.275C114 17.7333 131.5 35 131.5 35C131.5 35 149 17.7333 149 9.275C149 4.31667 144.8 0 139.725 0Z" fill="#FC97B2"/>
<path d="M139.725 197C136.05 197 132.958 199.1 131.5 202.133C130.042 199.1 126.95 197 123.275 197C118.2 197 114 201.317 114 206.275C114 214.733 131.5 232 131.5 232C131.5 232 149 214.733 149 206.275C149 201.317 144.8 197 139.725 197Z" fill="#FC97B2"/>
<path d="M139.725 295C136.05 295 132.958 297.1 131.5 300.133C130.042 297.1 126.95 295 123.275 295C118.2 295 114 299.317 114 304.275C114 312.733 131.5 330 131.5 330C131.5 330 149 312.733 149 304.275C149 299.317 144.8 295 139.725 295Z" fill="#FC97B2"/>
<path d="M139.725 99C136.05 99 132.958 101.1 131.5 104.133C130.042 101.1 126.95 99 123.275 99C118.2 99 114 103.317 114 108.275C114 116.733 131.5 134 131.5 134C131.5 134 149 116.733 149 108.275C149 103.317 144.8 99 139.725 99Z" fill="#FC97B2"/>
<path d="M253.725 0C250.05 0 246.958 2.1 245.5 5.13333C244.042 2.1 240.95 0 237.275 0C232.2 0 228 4.31667 228 9.275C228 17.7333 245.5 35 245.5 35C245.5 35 263 17.7333 263 9.275C263 4.31667 258.8 0 253.725 0Z" fill="#FC97B2"/>
<path d="M253.725 197C250.05 197 246.958 199.1 245.5 202.133C244.042 199.1 240.95 197 237.275 197C232.2 197 228 201.317 228 206.275C228 214.733 245.5 232 245.5 232C245.5 232 263 214.733 263 206.275C263 201.317 258.8 197 253.725 197Z" fill="#FC97B2"/>
<path d="M253.725 295C250.05 295 246.958 297.1 245.5 300.133C244.042 297.1 240.95 295 237.275 295C232.2 295 228 299.317 228 304.275C228 312.733 245.5 330 245.5 330C245.5 330 263 312.733 263 304.275C263 299.317 258.8 295 253.725 295Z" fill="#FC97B2"/>
<path d="M253.725 99C250.05 99 246.958 101.1 245.5 104.133C244.042 101.1 240.95 99 237.275 99C232.2 99 228 103.317 228 108.275C228 116.733 245.5 134 245.5 134C245.5 134 263 116.733 263 108.275C263 103.317 258.8 99 253.725 99Z" fill="#FC97B2"/>
<path d="M379.725 0C376.05 0 372.958 2.1 371.5 5.13333C370.042 2.1 366.95 0 363.275 0C358.2 0 354 4.31667 354 9.275C354 17.7333 371.5 35 371.5 35C371.5 35 389 17.7333 389 9.275C389 4.31667 384.8 0 379.725 0Z" fill="#FC97B2"/>
<path d="M379.725 197C376.05 197 372.958 199.1 371.5 202.133C370.042 199.1 366.95 197 363.275 197C358.2 197 354 201.317 354 206.275C354 214.733 371.5 232 371.5 232C371.5 232 389 214.733 389 206.275C389 201.317 384.8 197 379.725 197Z" fill="#FC97B2"/>
<path d="M379.725 295C376.05 295 372.958 297.1 371.5 300.133C370.042 297.1 366.95 295 363.275 295C358.2 295 354 299.317 354 304.275C354 312.733 371.5 330 371.5 330C371.5 330 389 312.733 389 304.275C389 299.317 384.8 295 379.725 295Z" fill="#FC97B2"/>
<path d="M379.725 99C376.05 99 372.958 101.1 371.5 104.133C370.042 101.1 366.95 99 363.275 99C358.2 99 354 103.317 354 108.275C354 116.733 371.5 134 371.5 134C371.5 134 389 116.733 389 108.275C389 103.317 384.8 99 379.725 99Z" fill="#FC97B2"/>
</svg>
